# xmcd
#
# Track frame offsets: 
#        3000
#        19231
#        35756
#        55660
#        77575
#        94357
#        111814
#        129814
#        146603
#        165704
#        186263
#        202101
#        220384
#        235434
#        250973
#        269516
#        288471
#        306671
#        324218
#        338466
#
# Disc length: 4749 seconds
#
# Revision: 0
# Processed by: cddbd v1.5.2PL0 Copyright (c) Steve Scherf et al.
# Submitted via: ExactAudioCopyFreeDBPlugin 1.0
#
DISCID=31126514
DTITLE=Various Artist - Hit Country - Hits Of The Decade - 2001 - 201
DTITLE=0
DYEAR=2010
DGENRE=Country
TTITLE0=Lee Kernaghan - Planet Country
TTITLE1=The McClymonts - Wrapped Up Good
TTITLE2=Troy Cassar-Daley - Born To Survive
TTITLE3=Keith Urban - You'll Think Of Me
TTITLE4=Carrie Underwood - Jesus Take The Wheel
TTITLE5=Kasey Chambers - Like A River
TTITLE6=Kenny Chesney - I Go Back
TTITLE7=Gretchen Wilson - Redneck Woman
TTITLE8=Miranda Lambert - Bring Me Down
TTITLE9=Brooks and Dunn - Believe
TTITLE10=Toby Keith and Willie Nelson - Beer For My Horses
TTITLE11=The Road Hammers - I'm A Road Hammer
TTITLE12=Jasmine Rae - Country Singer
TTITLE13=Deanna Carter - There's No Limit
TTITLE14=Brad Paisley - Alcohol
TTITLE15=Gary Allan - Best I Ever Had
TTITLE16=Vince Gill feat. Sheryl Crow - What You Give Away
TTITLE17=Emerson Drive - Moments
TTITLE18=Melinda Schneider - Stronger
TTITLE19=Beccy Cole - Poster Girl (Wrong Side Of The World)
EXTD=
EXTT0=
EXTT1=
EXTT2=
EXTT3=
EXTT4=
EXTT5=
EXTT6=
EXTT7=
EXTT8=
EXTT9=
EXTT10=
EXTT11=
EXTT12=
EXTT13=
EXTT14=
EXTT15=
EXTT16=
EXTT17=
EXTT18=
EXTT19=
PLAYORDER=
